<?xml version="1.0" encoding="UTF-8"?>
<svg id="Layer_1" xmlns="http://www.w3.org/2000/svg" version="1.1" viewBox="0 0 1080 1080">
  <!-- Generator: Adobe Illustrator 30.2.1, SVG Export Plug-In . SVG Version: 2.1.1 Build 1)  -->
  <defs>
    <style>
      .st0 {
        fill: #060606;
      }

      .st1 {
        fill: #656565;
      }
    </style>
  </defs>
  <path class="st1" d="M600.48,542.46c11.81,156.13-159.69,129.41-291.13,126.12h0c3.08-2.61,0,4.11,0,0l-13.6-389.35c.01-9.04,5.28-4.46-5.1-15.3-8.29-8.67-1.61-23.79,0-25.5l189.92-45.67c63.07,1.66,59.95,64.61,65.11,113.68,3.88,36.81,6.77,97.11-30.06,121.12-9.36,6.11-7.67,20.46,2.7,24.49,43.69,16.97,78.72,45.05,82.16,90.41ZM448.98,254.97c-9.91-7.09-37.79-6.26-53.49.1-4.47,1.81-7.61,5.93-8.22,10.84-5.29,42.6-5.72,100.85-2.14,146.32.58,7.35,6.59,13.04,13.73,12.73,25.99-1.14,55.35-9.09,63.02-22.75,21.73-38.68,25.5-119.78-12.89-147.24ZM470.12,459.01c-18.84-9.46-50.79-13.17-75.27-10.79-6.64.64-11.7,6.37-11.9,13.24-1.51,52.55-1.53,116.88,5.92,160.32,5.52,20.37,68.37,16.46,83.43,2.42,54.07-50.41,35.29-146.38-2.19-165.19Z"/>
  <path class="st1" d="M732.7,651.58c3.34-10.27,15.73-56.38,9.04-61.47l-16.21-12.33c-5.39-4.1-2.57-12.79,4.17-12.84l58.23-.47c5.66-.05,9.05,6.36,5.89,11.12l-23.57,35.48c-.39.59-.7,1.24-.9,1.92l-75.39,253.3c-1.33,4.46-9.48,15.71-12.26,18.2-4.17,3.74-31.75-3.53-34-10.2l-41.61-162.7c-2.18-6.44-11.18-6.42-13.32.04l-51.59,155.27c-1.33,4.01-5.36,2.67-7.39,5.69-2.96,4.4-24.44,4.72-26.5-1.41l-45.22-267.03c-6.65-19.78-53.16-12.28-63.7-28.98-2.99-4.74.36-10.99,5.92-11l85.31-.03c4.76,0,8.14,4.67,6.71,9.28-4.53,14.61-9.02,31.69-5.73,41.41l34.72,152.35c2.13,6.3,28.18,3.94,29.15-2.64,10.86-73.62,21.76-80.15,9.21-199.4-.58-5.55-5.5.04,0,0l87.06-.6c6-.04,9.24,7.01,5.43,11.72-9.91,12.26-34.57,23.68-31.79,32.1l43.76,150.31c2.15,6.51,35.11,9.82,37.23,3.31l27.37-110.42Z"/>
  <path class="st0" d="M629.14,519.87c-18.25,3.84-34.57-.46-40.15-14.92-5.05-13.09,1.82-33.65,17.55-38.78l65.63-21.37c4.78-1.56,12.28-9.85,13.13-14.78.99-5.76-12.07-18.46-14.46-13.63-3.86,9.34-7.34,19.45-12.85,19.99-7.73.75-18.32-3.97-18.79-9.78-.82-10.02,6.98-18.32,15.82-19.47,19.34-2.5,34.12,2.35,38.95,21.72,3.31,13.28-3.63,29.83-18.86,36.45l-19.63,8.54c11.33,13.01,15.78,28.81,12.59,44.21-8.09,39-68.33,49.09-108.31,30.35-18.44-8.64-27.68-26.2-26.89-46.16.67-16.98,16.09-31.19,32.24-40.78-6.09-6.12-13.97-16.11-14.76-23.03-1.04-9.2,7.32-21.52,16.45-25.01,17.27-6.61,38.68-5.92,50.29,7.68,3.08,3.61,1.9,18.34-2.07,20.74-4.64,2.8-15.89,2.13-20.79-1.94-4.2-3.49-.99-13.47,1.78-22.62-5.15-1.9-18.12.07-22.21,5.36-4.21,5.43-6.61,21.93-3.46,28.25,2.96,5.94,14.49,7.55,24.88,12.75-1.52,4.59-9.78,4.93-19.02,4.37-11.36-.69-21.43,15.42-21.73,26.15-.36,12.57,6.32,27.18,17.78,33.14,35.56,18.53,85.24,5.45,88.14-25.12.62-6.55-6.71-23.06-13.27-23.35-14.75-.65-35.68,7.47-46.27,13.96-3.53,2.16-2.85,17.21.93,18.25l14.75,4.04c-1.73-7.97-2.2-20.7,3.03-23.93,6.25-3.85,19.36-1.57,22.15,4.1,4.13,8.4-1.59,22.31-12.53,24.62Z"/>
</svg>